<svg width="24" height="24" viewBox="0 0 24 24" fill="none" xmlns="http://www.w3.org/2000/svg">
<path d="M2.99995 11L20.2 6.00001L19.4 3.40001C19.1 2.40001 18 1.80001 16.9 2.10001L3.39995 6.10001C2.39995 6.40001 1.79995 7.50001 2.09995 8.60001L2.99995 11ZM2.99995 11H21V19C21 19.5304 20.7892 20.0392 20.4142 20.4142C20.0391 20.7893 19.5304 21 19 21H4.99995C4.46952 21 3.96081 20.7893 3.58574 20.4142C3.21067 20.0392 2.99995 19.5304 2.99995 19V11ZM6.19995 5.30001L9.29995 9.20001M12.4 3.40001L15.5 7.40001" stroke="black" stroke-width="2" stroke-linecap="round" stroke-linejoin="round"/>
</svg>
