<svg width="24" height="24" viewBox="0 0 24 24" fill="none" xmlns="http://www.w3.org/2000/svg">
<path d="M12 8.00001V21M12 8.00001C11.6383 6.50941 11.0154 5.23507 10.2127 4.34317C9.41003 3.45127 8.46469 2.9832 7.5 3.00001C6.83696 3.00001 6.20107 3.2634 5.73223 3.73224C5.26339 4.20108 5 4.83697 5 5.50001C5 6.16305 5.26339 6.79894 5.73223 7.26778C6.20107 7.73662 6.83696 8.00001 7.5 8.00001M12 8.00001C12.3617 6.50941 12.9846 5.23507 13.7873 4.34317C14.59 3.45127 15.5353 2.9832 16.5 3.00001C17.163 3.00001 17.7989 3.2634 18.2678 3.73224C18.7366 4.20108 19 4.83697 19 5.50001C19 6.16305 18.7366 6.79894 18.2678 7.26778C17.7989 7.73662 17.163 8.00001 16.5 8.00001M19 12V19C19 19.5304 18.7893 20.0391 18.4142 20.4142C18.0391 20.7893 17.5304 21 17 21H7C6.46957 21 5.96086 20.7893 5.58579 20.4142C5.21071 20.0391 5 19.5304 5 19V12M4 8.00001H20C20.5523 8.00001 21 8.44773 21 9.00001V11C21 11.5523 20.5523 12 20 12H4C3.44772 12 3 11.5523 3 11V9.00001C3 8.44773 3.44772 8.00001 4 8.00001Z" stroke="black" stroke-width="2" stroke-linecap="round" stroke-linejoin="round"/>
</svg>
