<svg width="24" height="24" viewBox="0 0 24 24" fill="none" xmlns="http://www.w3.org/2000/svg">
<path fill-rule="evenodd" clip-rule="evenodd" d="M5.57455 4.88993C3.91556 5.64825 2.7002 7.45196 2.7002 9.60283C2.7002 11.8002 3.59941 13.494 4.88848 14.9455C5.95092 16.1418 7.23703 17.1334 8.49132 18.1003C8.78923 18.33 9.08534 18.5583 9.37624 18.7876C9.90227 19.2023 10.3715 19.5663 10.8238 19.8306C11.2763 20.095 11.6406 20.2157 11.9502 20.2157C12.2598 20.2157 12.6241 20.095 13.0766 19.8306C13.5289 19.5663 13.9981 19.2023 14.5241 18.7876C14.815 18.5583 15.1112 18.33 15.4091 18.1003C16.6634 17.1334 17.9495 16.1418 19.0119 14.9455C20.301 13.494 21.2002 11.8002 21.2002 9.60283C21.2002 7.45196 19.9848 5.64825 18.3258 4.88993C16.7141 4.15321 14.5485 4.34831 12.4906 6.48647C12.3492 6.63336 12.1541 6.71637 11.9502 6.71637C11.7463 6.71637 11.5512 6.63336 11.4098 6.48647C9.35186 4.34831 7.18626 4.15321 5.57455 4.88993ZM11.9502 4.92455C9.63814 2.85597 7.04916 2.5666 4.95096 3.52569C2.73491 4.53866 1.2002 6.89076 1.2002 9.60283C1.2002 12.2684 2.31069 14.3018 3.76691 15.9415C4.93307 17.2547 6.36042 18.3537 7.62102 19.3243C7.90678 19.5443 8.18397 19.7578 8.44761 19.9656C8.95985 20.3694 9.50974 20.8 10.067 21.1257C10.6241 21.4512 11.2598 21.7157 11.9502 21.7157C12.6406 21.7157 13.2763 21.4512 13.8334 21.1257C14.3906 20.8 14.9405 20.3694 15.4528 19.9656C15.7164 19.7578 15.9936 19.5443 16.2794 19.3243C17.54 18.3537 18.9673 17.2547 20.1335 15.9415C21.5897 14.3018 22.7002 12.2684 22.7002 9.60283C22.7002 6.89076 21.1655 4.53866 18.9494 3.52569C16.8512 2.5666 14.2623 2.85597 11.9502 4.92455Z" fill="black" stroke="black" stroke-width="0.5"/>
</svg>
