<svg width="24" height="24" viewBox="0 0 24 24" fill="none" xmlns="http://www.w3.org/2000/svg">
<path d="M12.8226 4C13.7226 4.0024 14.1794 4.0072 14.5738 4.0184L14.729 4.024C14.9082 4.0304 15.085 4.0384 15.2986 4.048C16.1498 4.088 16.7305 4.22239 17.2401 4.41999C17.7681 4.62318 18.2129 4.89838 18.6577 5.34237C19.0646 5.74214 19.3794 6.22592 19.5801 6.75993C19.7777 7.26952 19.9121 7.85031 19.9521 8.70229C19.9617 8.91508 19.9697 9.09188 19.9761 9.27187L19.9809 9.42707C19.9929 9.82066 19.9977 10.2774 19.9993 11.1774L20.0001 11.7742V12.8222C20.002 13.4057 19.9959 13.9892 19.9817 14.5725L19.9769 14.7277C19.9705 14.9077 19.9625 15.0845 19.9529 15.2973C19.9129 16.1493 19.7769 16.7293 19.5801 17.2397C19.3794 17.7737 19.0646 18.2575 18.6577 18.6572C18.2579 19.0642 17.7741 19.379 17.2401 19.5796C16.7305 19.7772 16.1498 19.9116 15.2986 19.9516L14.729 19.9756L14.5738 19.9804C14.1794 19.9916 13.7226 19.9972 12.8226 19.9988L12.2259 19.9996H11.1787C10.5949 20.0017 10.0111 19.9955 9.42752 19.9812L9.27233 19.9764C9.08242 19.9692 8.89255 19.961 8.70274 19.9516C7.85156 19.9116 7.27078 19.7772 6.76039 19.5796C6.22667 19.3789 5.74317 19.0641 5.34362 18.6572C4.93639 18.2575 4.62133 17.7738 4.42044 17.2397C4.22285 16.7301 4.08845 16.1493 4.04845 15.2973L4.02445 14.7277L4.02045 14.5725C4.00571 13.9892 3.99904 13.4057 4.00046 12.8222V11.1774C3.99824 10.5939 4.00411 10.0104 4.01805 9.42707L4.02365 9.27187C4.03005 9.09188 4.03805 8.91508 4.04765 8.70229C4.08765 7.85031 4.22205 7.27032 4.41964 6.75993C4.621 6.2257 4.93661 5.74191 5.34442 5.34237C5.74374 4.93562 6.22695 4.62084 6.76039 4.41999C7.27078 4.22239 7.85076 4.088 8.70274 4.048C8.91554 4.0384 9.09313 4.0304 9.27233 4.024L9.42752 4.0192C10.0109 4.00499 10.5944 3.99885 11.1779 4.0008L12.8226 4ZM12.0003 7.9999C10.9394 7.9999 9.92203 8.42132 9.1719 9.17145C8.42178 9.92158 8.00036 10.939 8.00036 11.9998C8.00036 13.0606 8.42178 14.078 9.1719 14.8282C9.92203 15.5783 10.9394 15.9997 12.0003 15.9997C13.0611 15.9997 14.0785 15.5783 14.8286 14.8282C15.5787 14.078 16.0002 13.0606 16.0002 11.9998C16.0002 10.939 15.5787 9.92158 14.8286 9.17145C14.0785 8.42132 13.0611 7.9999 12.0003 7.9999ZM12.0003 9.59986C12.3154 9.59981 12.6275 9.66184 12.9187 9.7824C13.2099 9.90296 13.4745 10.0797 13.6974 10.3025C13.9203 10.5253 14.0971 10.7899 14.2178 11.081C14.3384 11.3722 14.4005 11.6842 14.4006 11.9994C14.4007 12.3146 14.3386 12.6267 14.2181 12.9179C14.0975 13.209 13.9208 13.4736 13.698 13.6965C13.4751 13.9194 13.2106 14.0963 12.9194 14.2169C12.6283 14.3376 12.3162 14.3997 12.0011 14.3997C11.3646 14.3997 10.7541 14.1469 10.304 13.6968C9.85397 13.2467 9.60112 12.6363 9.60112 11.9998C9.60112 11.3633 9.85397 10.7529 10.304 10.3028C10.7541 9.85271 11.3646 9.59986 12.0011 9.59986M16.201 6.79993C15.9357 6.79993 15.6814 6.90529 15.4939 7.09282C15.3063 7.28035 15.201 7.5347 15.201 7.79991C15.201 8.06512 15.3063 8.31947 15.4939 8.507C15.6814 8.69453 15.9357 8.79988 16.201 8.79988C16.4662 8.79988 16.7205 8.69453 16.908 8.507C17.0956 8.31947 17.2009 8.06512 17.2009 7.79991C17.2009 7.5347 17.0956 7.28035 16.908 7.09282C16.7205 6.90529 16.4662 6.79993 16.201 6.79993Z" fill="black"/>
</svg>
