<svg width="24" height="24" viewBox="0 0 24 24" fill="none" xmlns="http://www.w3.org/2000/svg">
<path d="M7.35782 5.67975C7.3576 6.12502 7.1805 6.55197 6.86548 6.86667C6.55047 7.18137 6.12334 7.35804 5.67807 7.35782C5.2328 7.3576 4.80585 7.1805 4.49115 6.86548C4.17645 6.55047 3.99978 6.12334 4 5.67807C4.00022 5.2328 4.17732 4.80585 4.49233 4.49115C4.80735 4.17645 5.23447 3.99978 5.67975 4C6.12502 4.00022 6.55197 4.17732 6.86667 4.49233C7.18137 4.80735 7.35804 5.23447 7.35782 5.67975ZM7.40819 8.60105H4.05037V19.111H7.40819V8.60105ZM12.7135 8.60105H9.37251V19.111H12.68V13.5958C12.68 10.5234 16.6842 10.238 16.6842 13.5958V19.111H20V12.4541C20 7.27471 14.0735 7.46779 12.68 10.0113L12.7135 8.60105Z" fill="black"/>
</svg>
