<svg width="24" height="24" viewBox="0 0 24 24" fill="none" xmlns="http://www.w3.org/2000/svg">
<path d="M11.0001 7.601L5.00609 15.791C4.86505 15.9837 4.7976 16.2204 4.81594 16.4585C4.83429 16.6966 4.9372 16.9202 5.10609 17.089L5.92309 17.907C6.09444 18.0782 6.32208 18.1813 6.56375 18.1973C6.80541 18.2133 7.04467 18.1411 7.23709 17.994L15.0901 12M16.5001 21.174C15.5001 20.5 14.3721 20 13.0001 20C10.9421 20 9.07209 22.356 7.00009 22C4.92809 21.644 4.22509 18.631 5.50009 17.5M21.0001 7C21.0001 9.76142 18.7615 12 16.0001 12C13.2387 12 11.0001 9.76142 11.0001 7C11.0001 4.23858 13.2387 2 16.0001 2C18.7615 2 21.0001 4.23858 21.0001 7Z" stroke="black" stroke-width="2" stroke-linecap="round" stroke-linejoin="round"/>
</svg>
