<svg width="24" height="24" viewBox="0 0 24 24" fill="none" xmlns="http://www.w3.org/2000/svg">
<path fill-rule="evenodd" clip-rule="evenodd" d="M18.3427 5.09357C18.5394 5.01077 18.7547 4.98222 18.9662 5.01087C19.1777 5.03953 19.3777 5.12435 19.5453 5.25651C19.7129 5.38868 19.842 5.56334 19.9192 5.76233C19.9964 5.96133 20.0188 6.17737 19.9842 6.38798L18.1787 17.3395C18.0035 18.3959 16.8445 19.0017 15.8757 18.4755C15.0653 18.0353 13.8616 17.357 12.779 16.6493C12.2376 16.295 10.5794 15.1607 10.7832 14.3534C10.9583 13.6632 13.7446 11.0697 15.3367 9.52767C15.9616 8.92186 15.6766 8.57239 14.9387 9.12964C13.1061 10.5132 10.1639 12.6172 9.19107 13.2095C8.33291 13.7317 7.88552 13.8209 7.35056 13.7317C6.37458 13.5693 5.46945 13.3178 4.7307 13.0113C3.73243 12.5973 3.78099 11.2249 4.72991 10.8253L18.3427 5.09357Z" fill="black"/>
</svg>
