<svg width="24" height="24" viewBox="0 0 24 24" fill="none" xmlns="http://www.w3.org/2000/svg">
<path d="M16.0578 6.50667C15.4503 5.81291 15.1155 4.92213 15.1156 4H12.3689V15.0222C12.3481 15.6188 12.0965 16.1841 11.6669 16.5987C11.2374 17.0133 10.6636 17.2448 10.0667 17.2444C8.80444 17.2444 7.75556 16.2133 7.75556 14.9333C7.75556 13.4044 9.23111 12.2578 10.7511 12.7289V9.92C7.68444 9.51111 5 11.8933 5 14.9333C5 17.8933 7.45333 20 10.0578 20C12.8489 20 15.1156 17.7333 15.1156 14.9333V9.34222C16.2293 10.1421 17.5665 10.5712 18.9378 10.5689V7.82222C18.9378 7.82222 17.2667 7.90222 16.0578 6.50667Z" fill="black"/>
</svg>
