<svg width="24" height="24" viewBox="0 0 24 24" fill="none" xmlns="http://www.w3.org/2000/svg">
<path fill-rule="evenodd" clip-rule="evenodd" d="M4.75789 4C4.55689 4 4.36412 4.07693 4.22198 4.21386C4.07985 4.35078 4 4.5365 4 4.73015V16.2454C4 16.439 4.07985 16.6247 4.22198 16.7617C4.36412 16.8986 4.55689 16.9755 4.75789 16.9755H8.224V19.4337C8.22432 19.5458 8.25907 19.6553 8.32386 19.7484C8.38866 19.8415 8.4806 19.914 8.58811 19.9569C8.69562 19.9997 8.81389 20.011 8.92802 19.9892C9.04215 19.9674 9.14704 19.9136 9.22947 19.8345L12.1979 16.9755H16.1078C16.3087 16.9754 16.5014 16.8983 16.6434 16.7613L18.9356 14.5531C19.0778 14.4163 19.1577 14.2307 19.1579 14.0371V4.73015C19.1579 4.5365 19.078 4.35078 18.9359 4.21386C18.7938 4.07693 18.601 4 18.4 4H4.75789ZM10.9213 8.21863C10.9213 8.05725 10.8547 7.90249 10.7363 7.78838C10.6178 7.67428 10.4572 7.61017 10.2897 7.61017C10.1222 7.61017 9.96153 7.67428 9.84309 7.78838C9.72465 7.90249 9.65811 8.05725 9.65811 8.21863V11.6844C9.65811 11.8458 9.72465 12.0005 9.84309 12.1146C9.96153 12.2287 10.1222 12.2928 10.2897 12.2928C10.4572 12.2928 10.6178 12.2287 10.7363 12.1146C10.8547 12.0005 10.9213 11.8458 10.9213 11.6844V8.21863ZM15.1453 8.21863C15.1453 8.05725 15.0787 7.90249 14.9603 7.78838C14.8418 7.67428 14.6812 7.61017 14.5137 7.61017C14.3462 7.61017 14.1855 7.67428 14.0671 7.78838C13.9486 7.90249 13.8821 8.05725 13.8821 8.21863V11.6844C13.8821 11.8458 13.9486 12.0005 14.0671 12.1146C14.1855 12.2287 14.3462 12.2928 14.5137 12.2928C14.6812 12.2928 14.8418 12.2287 14.9603 12.1146C15.0787 12.0005 15.1453 11.8458 15.1453 11.6844V8.21863Z" fill="black"/>
</svg>
