<svg width="24" height="24" viewBox="0 0 24 24" fill="none" xmlns="http://www.w3.org/2000/svg">
<path d="M10.4 14L14.552 11.6L10.4 9.2V14ZM19.648 7.736C19.752 8.112 19.824 8.616 19.872 9.256C19.928 9.896 19.952 10.448 19.952 10.928L20 11.6C20 13.352 19.872 14.64 19.648 15.464C19.448 16.184 18.984 16.648 18.264 16.848C17.888 16.952 17.2 17.024 16.144 17.072C15.104 17.128 14.152 17.152 13.272 17.152L12 17.2C8.648 17.2 6.56 17.072 5.736 16.848C5.016 16.648 4.552 16.184 4.352 15.464C4.248 15.088 4.176 14.584 4.128 13.944C4.072 13.304 4.048 12.752 4.048 12.272L4 11.6C4 9.848 4.128 8.56 4.352 7.736C4.552 7.016 5.016 6.552 5.736 6.352C6.112 6.248 6.8 6.176 7.856 6.128C8.896 6.072 9.848 6.048 10.728 6.048L12 6C15.352 6 17.44 6.128 18.264 6.352C18.984 6.552 19.448 7.016 19.648 7.736Z" fill="black"/>
</svg>
