<svg xmlns="http://www.w3.org/2000/svg" width="16" height="16" viewBox="0 0 16 16" fill="none">
<path d="M4.96848 1.80842C5.21832 1.17494 6.11485 1.17494 6.36469 1.80842L7.13893 3.77153C7.21521 3.96493 7.3683 4.11803 7.56171 4.1943L9.52481 4.96854C10.1583 5.21838 10.1583 6.11491 9.52481 6.36475L7.56171 7.13899C7.3683 7.21527 7.21521 7.36836 7.13893 7.56177L6.36469 9.52487C6.11485 10.1584 5.21832 10.1583 4.96848 9.52487L4.19424 7.56177C4.11796 7.36836 3.96487 7.21527 3.77146 7.13899L1.80836 6.36475C1.17488 6.11491 1.17488 5.21838 1.80836 4.96854L3.77147 4.1943C3.96487 4.11802 4.11796 3.96493 4.19424 3.77153L4.96848 1.80842Z" fill="white"/>
<path d="M11.2831 8.92778C11.4204 8.57965 11.9131 8.57965 12.0504 8.92778L12.6508 10.4503C12.6928 10.5565 12.7769 10.6407 12.8832 10.6826L14.4057 11.283C14.7538 11.4203 14.7538 11.913 14.4057 12.0503L12.8832 12.6508C12.7769 12.6927 12.6928 12.7768 12.6508 12.8831L12.0504 14.4056C11.9131 14.7537 11.4204 14.7537 11.2831 14.4056L10.6827 12.8831C10.6407 12.7768 10.5566 12.6927 10.4503 12.6508L8.92785 12.0503C8.57972 11.913 8.57972 11.4203 8.92785 11.283L10.4503 10.6826C10.5566 10.6407 10.6407 10.5565 10.6827 10.4503L11.2831 8.92778Z" fill="white"/>
</svg>